
<?xml version="1.0" standalone="no"?><!DOCTYPE svg PUBLIC "-//W3C//DTD SVG 1.1//EN" "http://www.w3.org/Graphics/SVG/1.1/DTD/svg11.dtd"><svg t="1497928704849" class="icon" style="" viewBox="0 0 1024 1024" version="1.1" xmlns="http://www.w3.org/2000/svg" p-id="2441" xmlns:xlink="http://www.w3.org/1999/xlink" width="200" height="200"><defs><style type="text/css"></style></defs><path d="M870.193131 193.473939L734.280404 59.526465C728.384646 53.630707 720.420202 50.424242 712.145455 50.424242H173.769697C156.392727 50.424242 142.222222 64.491313 142.222222 81.971717v767.27596c0 8.481616 3.516768 16.756364 9.619394 22.652121l95.366465 91.953131c12.205253 11.791515 31.547475 11.791515 43.752727 0l97.228283-93.814949 100.951919 97.331717c12.205253 11.791515 31.547475 11.791515 43.752727 0l100.95192-97.331717 100.951919 97.331717c6.102626 5.895758 13.963636 8.895354 21.928081 8.895354s15.825455-2.896162 21.92808-8.895354l91.332526-88.126061c6.102626-5.999192 9.619394-14.170505 9.619394-22.755555V215.919192c0-8.378182-3.309899-16.446061-9.412526-22.445253zM619.571717 826.388687l-108.502626 104.572121-108.399192-104.572121c-7.964444-7.757576-20.686869-7.757576-28.754747 0l-104.77899 101.055353-85.436768-82.437171V91.79798h524.412121l-0.620606 107.364848c-0.103434 11.481212 9.205657 20.790303 20.686869 20.790303l110.157576 0.103435v632.190707l-81.506263 78.610101-108.502626-104.468687c-8.067879-7.757576-20.790303-7.757576-28.754748 0z" fill="" p-id="2442"></path><path d="M490.071919 359.486061h-161.357576c-11.377778 0-20.686869-9.309091-20.686868-20.686869s9.309091-20.686869 20.686868-20.686869h161.357576c11.377778 0 20.686869 9.309091 20.686869 20.686869s-9.309091 20.686869-20.686869 20.686869z m203.145051 104.261818H328.714343c-11.377778 0-20.686869-9.309091-20.686868-20.686869s9.309091-20.686869 20.686868-20.686869h364.399192c11.377778 0 20.686869 9.309091 20.686869 20.686869 0.103434 11.377778-9.205657 20.686869-20.583434 20.686869z m0 104.261818H328.714343c-11.377778 0-20.686869-9.309091-20.686868-20.686869s9.309091-20.686869 20.686868-20.686868h364.399192c11.377778 0 20.686869 9.309091 20.686869 20.686868 0.103434 11.377778-9.205657 20.686869-20.583434 20.686869z m0 104.261818H328.714343c-11.377778 0-20.686869-9.309091-20.686868-20.686869s9.309091-20.686869 20.686868-20.686868h364.399192c11.377778 0 20.686869 9.309091 20.686869 20.686868 0.103434 11.377778-9.205657 20.686869-20.583434 20.686869z" fill="" p-id="2443"></path></svg>