
<?xml version="1.0" standalone="no"?><!DOCTYPE svg PUBLIC "-//W3C//DTD SVG 1.1//EN" "http://www.w3.org/Graphics/SVG/1.1/DTD/svg11.dtd"><svg t="1496820683525" class="icon" style="" viewBox="0 0 1024 1024" version="1.1" xmlns="http://www.w3.org/2000/svg" p-id="2931" xmlns:xlink="http://www.w3.org/1999/xlink" width="200" height="200"><defs><style type="text/css"></style></defs><path d="M526.391 27.449c-7.904-11.036-20.854-11.036-28.782 0l-287.375 401.311c-7.904 11.036-3.28 20.108 10.34 20.108h146.769c13.597 0 26.347 11.011 28.334 24.457l8.004 54.631c1.987 13.447 14.74 24.457 28.334 24.457h55.251c13.62 0 35.841 0 49.461 0h55.229c13.597 0 26.347-11.011 28.31-24.457l8.053-54.631c1.987-13.447 14.714-24.459 28.334-24.457h146.769c13.597 0 18.243-9.047 10.34-20.108l-287.375-401.311z" fill="#888888" p-id="2932"></path><path d="M442.43 623.277c-13.597 0-23.115 11.011-21.127 24.457l5.666 38.302c1.964 13.471 14.714 24.459 28.31 24.457h31.988c13.62 0 35.841 0 49.461 0h32.014c13.597 0 26.347-11.011 28.334-24.457l5.643-38.302c1.987-13.471-7.506-24.457-21.127-24.457h-44.838c-13.597 0-35.841 0-49.461 0h-44.863z" fill="#888888" p-id="2933"></path><path d="M488.114 939.435c-13.123 0-22.27 11.011-20.282 24.457l2.411 16.505c1.987 13.421 12.179 24.433 22.668 24.433s27.664 0 38.154 0 20.704-11.011 22.693-24.457l2.411-16.505c1.987-13.447-7.157-24.433-20.257-24.433-13.148 0-34.674 0-47.797 0v0z" fill="#888888" p-id="2934"></path><path d="M465.695 781.356c-13.62 0-23.115 11.011-21.127 24.457l5.643 38.302c1.987 13.471 14.74 24.457 28.334 24.457h8.751c13.62 0 35.841 0 49.461 0h8.751c13.597 0 26.347-11.011 28.334-24.457l5.643-38.302c1.987-13.471-7.506-24.457-21.127-24.457h-21.597c-13.597 0-35.841 0-49.461 0h-21.597z" p-id="2935"></path></svg>