
<?xml version="1.0" standalone="no"?><!DOCTYPE svg PUBLIC "-//W3C//DTD SVG 1.1//EN" "http://www.w3.org/Graphics/SVG/1.1/DTD/svg11.dtd"><svg t="1498100867265" class="icon" style="" viewBox="0 0 1024 1024" version="1.1" xmlns="http://www.w3.org/2000/svg" p-id="8142" xmlns:xlink="http://www.w3.org/1999/xlink" width="200" height="200"><defs><style type="text/css"></style></defs><path d="M801.728 364.8a32 32 0 0 0-32 32v91.392c0 129.28-115.648 234.432-257.728 234.432S254.272 617.408 254.272 488.192V393.216a32 32 0 0 0-64 0v94.976c0 157.888 133.248 286.208 300.672 296.448v111.488H357.632c-16.128 0-29.184 14.336-29.184 32.064 0 17.664 13.056 31.936 29.184 31.936h319.04c16.064 0 29.184-14.272 29.184-31.936 0-17.728-13.12-32.064-29.184-32.064H554.944v-113.472c156.992-19.776 278.784-143.488 278.784-294.464V396.8c0-17.728-14.272-32-32-32z" p-id="8143"></path><path d="M602.176 502.016m-49.856 0a49.856 49.856 0 1 0 99.712 0 49.856 49.856 0 1 0-99.712 0Z" p-id="8144"></path><path d="M517.12 69.888a199.04 199.04 0 0 0-198.784 198.848v211.072a199.04 199.04 0 0 0 198.784 198.848 199.104 199.104 0 0 0 198.912-198.848V268.736A199.04 199.04 0 0 0 517.12 69.888z m134.912 227.328H382.336v-28.48c0-74.368 60.48-134.848 134.784-134.848a135.04 135.04 0 0 1 134.912 134.848v28.48z" p-id="8145"></path></svg>