
<?xml version="1.0" standalone="no"?><!DOCTYPE svg PUBLIC "-//W3C//DTD SVG 1.1//EN" "http://www.w3.org/Graphics/SVG/1.1/DTD/svg11.dtd"><svg t="1502870802242" class="icon" style="" viewBox="0 0 1024 1024" version="1.1" xmlns="http://www.w3.org/2000/svg" p-id="6009" xmlns:xlink="http://www.w3.org/1999/xlink" width="200" height="200"><defs><style type="text/css"></style></defs><path d="M218.343383 794.481784h583.793804V88.268332H218.343383v706.213452z m54.99559-52.960999h473.807762V141.239608H273.338973V741.520785z m285.525963 140.165796c0 23.932124-20.150664 43.31211-44.992188 43.312109-24.836386 0-44.98705-19.374848-44.98705-43.312109 0-23.921848 20.150664-43.342937 44.98705-43.342937 24.841524 0 44.992188 19.421088 44.992188 43.342937zM800.302973 1024H220.177597C168.619232 1024 126.673791 983.580502 126.673791 933.948832V90.040892C126.673791 40.393808 168.619232 0 220.177597 0h580.125376c51.54809 0 93.503806 40.398946 93.503806 90.040892v843.90794c0.005138 49.63167-41.950578 90.051168-93.503806 90.051168zM220.177597 52.966137c-21.239889 0-38.508216 16.626096-38.508216 37.069617v843.90794c0 20.448659 17.273465 37.08503 38.508216 37.085031h580.125376c21.239889 0 38.503078-16.631234 38.503078-37.085031V90.040892c0-20.443521-17.26319-37.074755-38.503078-37.074755H220.177597z" fill="" p-id="6010"></path></svg>