
<?xml version="1.0" standalone="no"?><!DOCTYPE svg PUBLIC "-//W3C//DTD SVG 1.1//EN" "http://www.w3.org/Graphics/SVG/1.1/DTD/svg11.dtd"><svg t="1496998854533" class="icon" style="" viewBox="0 0 1024 1024" version="1.1" xmlns="http://www.w3.org/2000/svg" p-id="2323" xmlns:xlink="http://www.w3.org/1999/xlink" width="200" height="200"><defs><style type="text/css"></style></defs><path d="M1.523552 1024 1.523552 584.565074c-1.8691-63.227425 7.248654-122.59885 27.34541-178.114273s48.266769-104.363341 84.729933-146.55946c36.345364-42.070466 79.821581-77.017931 130.664253-104.834543 50.724872-27.698811 105.769093-45.463118 165.140517-53.05732l0 189.564476c-72.808528 24.895161-122.59885 61.703873-149.363111 110.559644-26.882062 48.855771-40.201365 108.690544-40.201365 179.512171L409.395813 581.63577l0 442.356377L1.523552 1023.992147zM613.339796 1024 613.339796 584.565074c-1.986901-63.227425 7.130854-122.59885 27.227609-178.114273 20.104609-55.515423 48.384569-104.363341 84.729933-146.55946 36.345364-42.070466 79.939382-77.017931 130.664253-104.834543 50.724872-27.698811 105.886893-45.463118 165.258317-53.05732l0 189.564476c-72.808528 24.895161-122.59885 61.703873-149.363111 110.559644-26.882062 48.855771-40.201365 108.690544-40.201365 179.512171l189.564476 0 0 442.356377L613.339796 1023.992147z" p-id="2324"></path></svg>