
<?xml version="1.0" standalone="no"?><!DOCTYPE svg PUBLIC "-//W3C//DTD SVG 1.1//EN" "http://www.w3.org/Graphics/SVG/1.1/DTD/svg11.dtd"><svg t="1502443150726" class="icon" style="" viewBox="0 0 1024 1024" version="1.1" xmlns="http://www.w3.org/2000/svg" p-id="2323" xmlns:xlink="http://www.w3.org/1999/xlink" width="200" height="200"><defs><style type="text/css"></style></defs><path d="M937.024 825.472l-176.512-176.576c-2.624-2.624-5.568-4.608-8.32-6.784 38.208-58.688 60.544-128.512 60.544-203.776 0-206.784-167.552-374.4-374.4-374.4C231.616 63.936 64 231.552 64 438.336c0 206.784 167.68 374.4 374.4 374.4 75.264 0 145.216-22.4 203.904-60.608 2.176 2.816 4.096 5.696 6.72 8.256l176.512 176.576C840.96 952.32 861.056 960 881.216 960c20.16 0 40.32-7.68 55.744-23.04C967.68 906.176 967.68 856.256 937.024 825.472M438.336 694.464c-141.184 0-256.128-114.944-256.128-256.128 0-141.184 114.944-256.128 256.128-256.128 141.184 0 256.128 114.944 256.128 256.128C694.464 579.52 579.52 694.464 438.336 694.464" p-id="2324"></path></svg>