
<?xml version="1.0" standalone="no"?><!DOCTYPE svg PUBLIC "-//W3C//DTD SVG 1.1//EN" "http://www.w3.org/Graphics/SVG/1.1/DTD/svg11.dtd"><svg t="1496762132564" class="icon" style="" viewBox="0 0 1024 1024" version="1.1" xmlns="http://www.w3.org/2000/svg" p-id="2378" xmlns:xlink="http://www.w3.org/1999/xlink" width="200" height="200"><defs><style type="text/css"></style></defs><path d="M170.666667 682.666667c-93.866667 0-170.666667-76.8-170.666667-170.666667s76.8-170.666667 170.666667-170.666667 170.666667 76.8 170.666667 170.666667S264.533333 682.666667 170.666667 682.666667zM170.666667 426.666667c-46.933333 0-85.333333 38.4-85.333333 85.333333s38.4 85.333333 85.333333 85.333333 85.333333-38.4 85.333333-85.333333S217.6 426.666667 170.666667 426.666667z" p-id="2379"></path><path d="M853.333333 341.333333c-93.866667 0-170.666667-76.8-170.666667-170.666667s76.8-170.666667 170.666667-170.666667 170.666667 76.8 170.666667 170.666667S947.2 341.333333 853.333333 341.333333zM853.333333 85.333333c-46.933333 0-85.333333 38.4-85.333333 85.333333s38.4 85.333333 85.333333 85.333333 85.333333-38.4 85.333333-85.333333S900.266667 85.333333 853.333333 85.333333z" p-id="2380"></path><path d="M853.333333 1024c-93.866667 0-170.666667-76.8-170.666667-170.666667s76.8-170.666667 170.666667-170.666667 170.666667 76.8 170.666667 170.666667S947.2 1024 853.333333 1024zM853.333333 768c-46.933333 0-85.333333 38.4-85.333333 85.333333s38.4 85.333333 85.333333 85.333333 85.333333-38.4 85.333333-85.333333S900.266667 768 853.333333 768z" p-id="2381"></path><path d="M305.925973 531.904853l454.116693 227.058347-38.161067 76.322133-454.116693-227.058347 38.161067-76.322133Z" p-id="2382"></path><path d="M718.074027 190.580053l38.161067 76.322133-454.116693 227.058347-38.161067-76.322133 454.116693-227.058347Z" p-id="2383"></path></svg>