
<?xml version="1.0" standalone="no"?><!DOCTYPE svg PUBLIC "-//W3C//DTD SVG 1.1//EN" "http://www.w3.org/Graphics/SVG/1.1/DTD/svg11.dtd"><svg t="1523248398506" class="icon" style="" viewBox="0 0 1024 1024" version="1.1" xmlns="http://www.w3.org/2000/svg" p-id="1874" xmlns:xlink="http://www.w3.org/1999/xlink" width="200" height="200"><defs><style type="text/css"></style></defs><path d="M957.258525 404.23316c-3.78431-11.352931-13.589115-19.609609-25.458088-21.501764l-270.406182-41.799429L540.640349 82.394759c-5.332437-11.180917-16.513355-18.40551-28.898371-18.40551 0 0 0 0 0 0-12.385016 0-23.565933 7.052579-28.898371 18.40551l-121.78599 258.021166L90.135394 381.183269c-11.868974 1.720141-21.673778 9.976818-25.630102 21.32975s-1.032085 23.909961 7.396607 32.510667L268.342012 637.140265 221.38216 921.995632c-2.064169 12.040988 3.096254 24.25399 13.073072 31.306568 9.976818 7.052579 23.221905 7.740635 33.88678 1.892155L510.193852 822.227448l241.335797 133.826978c4.816395 2.580212 10.148833 3.956325 15.48127 3.956325 0.172014 0 0.516042 0 0.688056 0 17.717453 0 31.994625-14.277171 31.994625-31.994625 0-3.956325-0.688056-7.740635-2.064169-11.352931l-44.895683-278.662859 196.956157-201.256509C958.118596 428.143121 961.042836 415.586091 957.258525 404.23316z" p-id="1875"></path></svg>