
<?xml version="1.0" standalone="no"?><!DOCTYPE svg PUBLIC "-//W3C//DTD SVG 1.1//EN" "http://www.w3.org/Graphics/SVG/1.1/DTD/svg11.dtd"><svg t="1522824562118" class="icon" style="" viewBox="0 0 1024 1024" version="1.1" xmlns="http://www.w3.org/2000/svg" p-id="1910" xmlns:xlink="http://www.w3.org/1999/xlink" width="200" height="200"><defs><style type="text/css"></style></defs><path d="M265.6 937.6c-12.8 0-27.2-4.8-38.4-12.8-19.2-14.4-28.8-35.2-27.2-59.2l24-240L64 446.4c-16-17.6-20.8-41.6-12.8-64s25.6-38.4 48-43.2L334.4 288l121.6-208c11.2-20.8 32-32 56-32s44.8 12.8 56 32l121.6 208 235.2 51.2c22.4 4.8 41.6 20.8 48 43.2s1.6 46.4-12.8 64L800 625.6l24 240c1.6 24-8 44.8-27.2 59.2-19.2 14.4-43.2 16-64 6.4l-220.8-96-220.8 97.6c-8 3.2-17.6 4.8-25.6 4.8zM512 771.2c9.6 0 17.6 1.6 25.6 4.8l220.8 97.6 1.6-1.6-24-240c-1.6-17.6 4.8-36.8 16-49.6l160-179.2 6.4-33.6-6.4 32L676.8 352c-17.6-3.2-33.6-14.4-41.6-30.4l-121.6-208H512l-121.6 208c-9.6 16-24 27.2-41.6 30.4L112 403.2v1.6l160 179.2c12.8 12.8 17.6 32 16 49.6l-24 240 1.6 1.6 220.8-97.6c8-4.8 16-6.4 25.6-6.4z" p-id="1911"></path></svg>