
<?xml version="1.0" standalone="no"?>
<!DOCTYPE svg PUBLIC "-//W3C//DTD SVG 1.1//EN" "http://www.w3.org/Graphics/SVG/1.1/DTD/svg11.dtd">
<svg t="1491804242112" class="icon" style="" viewBox="0 0 1024 1024" version="1.1" xmlns="http://www.w3.org/2000/svg" p-id="2364" xmlns:xlink="http://www.w3.org/1999/xlink" width="200" height="200">
<path d="M402.285706 786.285714l0-402.285714q0-7.972571-5.12-13.165714t-13.165714-5.12l-36.571429 0q-7.972571 0-13.165714 5.12t-5.12 13.165714l0 402.285714q0 7.972571 5.12 13.165714t13.165714 5.12l36.571429 0q7.972571 0 13.165714-5.12t5.12-13.165714zM548.57142 786.285714l0-402.285714q0-7.972571-5.12-13.165714t-13.165714-5.12l-36.571429 0q-7.972571 0-13.165714 5.12t-5.12 13.165714l0 402.285714q0 7.972571 5.12 13.165714t13.165714 5.12l36.571429 0q7.972571 0 13.165714-5.12t5.12-13.165714zM694.857135 786.285714l0-402.285714q0-7.972571-5.12-13.165714t-13.165714-5.12l-36.571429 0q-7.972571 0-13.165714 5.12t-5.12 13.165714l0 402.285714q0 7.972571 5.12 13.165714t13.165714 5.12l36.571429 0q7.972571 0 13.165714-5.12t5.12-13.165714zM383.999992 219.428571l256 0-27.428571-66.852571q-4.022857-5.12-9.728-6.290286l-181.174857 0q-5.705143 1.170286-9.728 6.290286zM914.285706 237.714286l0 36.571429q0 7.972571-5.12 13.165714t-13.165714 5.12l-54.857143 0 0 541.696q0 47.396571-26.843429 81.993143t-64.585143 34.596571l-475.428571 0q-37.741714 0-64.585143-33.426286t-26.843429-80.822857l0-544.036571-54.857143 0q-7.972571 0-13.165714-5.12t-5.12-13.165714l0-36.571429q0-7.972571 5.12-13.165714t13.165714-5.12l176.566857 0 40.009143-95.451429q8.557714-21.138286 30.866286-35.986286t45.129143-14.848l182.857143 0q22.820571 0 45.129143 14.848t30.866286 35.986286l40.009143 95.451429 176.566857 0q7.972571 0 13.165714 5.12t5.12 13.165714z" p-id="3164"></path>
</svg>